<?xml version="1.0" standalone="no"?>
<!DOCTYPE svg PUBLIC "-//W3C//DTD SVG 20010904//EN"
 "http://www.w3.org/TR/2001/REC-SVG-20010904/DTD/svg10.dtd">
<svg version="1.0" xmlns="http://www.w3.org/2000/svg"
 width="160.000000pt" height="160.000000pt" viewBox="0 0 160.000000 160.000000"
 preserveAspectRatio="xMidYMid meet">
<metadata>
Created by potrace 1.11, written by Peter Selinger 2001-2013
</metadata>
<g transform="translate(0.000000,160.000000) scale(0.100000,-0.100000)"
fill="#000000" stroke="none">
<path d="M637 1513 c-47 -18 -66 -30 -63 -40 11 -28 109 -174 114 -169 2 3 6
29 8 58 2 29 5 81 8 116 3 34 4 62 3 61 -1 0 -33 -12 -70 -26z"/>
<path d="M886 1423 c3 -60 8 -111 11 -116 2 -4 31 34 64 84 33 50 57 95 52 99
-8 8 -109 40 -125 40 -4 0 -5 -48 -2 -107z"/>
<path d="M301 1413 l-40 -80 90 -22 c104 -25 135 -27 119 -8 -6 6 -36 50 -66
97 -31 47 -57 87 -59 89 -2 1 -22 -33 -44 -76z"/>
<path d="M1188 1413 c-24 -43 -51 -88 -58 -100 -8 -12 -12 -24 -9 -27 6 -6
190 42 201 53 6 5 -66 127 -87 149 -2 2 -23 -32 -47 -75z"/>
<path d="M269 1183 c-34 -9 -39 -47 -33 -256 4 -111 4 -200 1 -197 -3 3 -8 79
-11 169 -6 176 -13 201 -61 201 -44 0 -57 -31 -56 -132 1 -51 3 -108 6 -125 2
-18 1 -33 -3 -33 -4 0 -9 15 -10 33 -4 52 -12 67 -35 67 -57 -1 -65 -32 -63
-225 4 -215 24 -313 78 -372 19 -20 20 -35 19 -167 l-1 -146 179 0 178 0 1
144 0 145 30 32 c16 17 51 68 78 113 56 95 79 118 157 157 65 33 72 55 32 94
-18 19 -35 25 -65 25 -48 0 -65 -8 -109 -49 -18 -17 -41 -31 -51 -31 -23 0
-50 26 -51 48 -1 9 -2 37 -4 62 -2 25 -4 109 -5 187 -2 175 -15 201 -91 184
-18 -4 -26 -59 -23 -165 2 -65 1 -116 -2 -113 -4 3 -8 68 -9 144 -2 76 -4 146
-4 156 -1 18 -35 58 -48 56 -5 -1 -15 -3 -24 -6z m88 -385 c-3 -8 -6 -5 -6 6
-1 11 2 17 5 13 3 -3 4 -12 1 -19z m-239 -70 c3 -87 -4 -87 -11 -1 -4 51 -2
73 8 73 0 0 2 -32 3 -72z"/>
<path d="M1275 1166 c-15 -11 -20 -32 -26 -97 -4 -53 -7 -67 -8 -39 -2 55 -19
80 -54 80 -52 0 -60 -32 -64 -233 -1 -100 -4 -189 -6 -197 -5 -26 -21 -48 -37
-50 -28 -4 -36 0 -76 35 -21 19 -43 35 -49 36 -5 0 -22 3 -37 5 -53 9 -116
-44 -101 -84 3 -7 30 -24 60 -39 59 -27 106 -70 130 -118 22 -41 88 -139 110
-161 16 -15 18 -37 18 -161 l0 -143 180 0 180 0 -1 140 c-1 139 -1 140 27 178
50 69 72 189 72 399 0 157 -17 201 -71 186 -25 -6 -32 -40 -32 -145 0 -43 -4
-77 -8 -74 -5 3 -7 20 -6 38 1 18 5 99 9 179 5 131 4 148 -12 168 -27 32 -59
34 -82 5 -19 -24 -21 -47 -23 -281 -1 -24 -4 -43 -8 -43 -6 0 -4 179 4 315 5
97 -34 142 -89 101z m-28 -233 c-3 -10 -5 -2 -5 17 0 19 2 27 5 18 2 -10 2
-26 0 -35z m0 -70 c-3 -10 -5 -2 -5 17 0 19 2 27 5 18 2 -10 2 -26 0 -35z m3
-38 c0 -8 -2 -15 -4 -15 -2 0 -6 7 -10 15 -3 8 -1 15 4 15 6 0 10 -7 10 -15z
m120 -89 c0 -3 -4 -8 -10 -11 -5 -3 -10 -1 -10 4 0 6 5 11 10 11 6 0 10 -2 10
-4z"/>
</g>
</svg>
