<svg xmlns="http://www.w3.org/2000/svg" width="108.079" height="71.791" viewBox="0 0 108.079 71.791">
  <g id="Logo" transform="translate(0 0)">
    <path id="V" d="M56.766,71.791h0a6.634,6.634,0,0,1-3.554-1.037,6.867,6.867,0,0,1-3-7.26l-3.7-2.343A28.562,28.562,0,0,0,49.039,57.4l3.543,2.245a6.706,6.706,0,0,1,10.742,3.8,6.851,6.851,0,0,1-.849,5.145,6.767,6.767,0,0,1-2.492,2.378A6.7,6.7,0,0,1,56.766,71.791Zm-6.91-40.916h0a28.554,28.554,0,0,0-2.294-3.9L65.148,15.83a6.869,6.869,0,0,1,3-7.26,6.645,6.645,0,0,1,6.773-.21,6.766,6.766,0,0,1,2.492,2.379,6.853,6.853,0,0,1,.85,5.146,6.77,6.77,0,0,1-2.988,4.247,6.653,6.653,0,0,1-7.753-.447L49.856,30.875ZM10.434,18.734h0L7.72,13.561a6.628,6.628,0,0,1-.992.075A6.7,6.7,0,0,1,.786,10.018,6.872,6.872,0,0,1,3.567.8a6.665,6.665,0,0,1,9.093,2.819,6.9,6.9,0,0,1-.981,7.81l2.81,5.357a28.021,28.021,0,0,0-4.054,1.949Z" transform="translate(28.452 0)" fill="#6ad0b0"/>
    <path id="O" d="M23.136,46.173A23.068,23.068,0,1,1,44.454,14.1,23.1,23.1,0,0,1,23.136,46.173Zm-.047-34.817A11.746,11.746,0,0,0,14.81,31.4,11.724,11.724,0,0,0,31.369,14.8,11.617,11.617,0,0,0,23.089,11.356Z" transform="translate(30.435 20.27)" fill="#6ad0b0"/>
    <path id="C" d="M23.136,46.173A23.087,23.087,0,1,1,23.136,0a23.28,23.28,0,0,1,5.586.677A23.043,23.043,0,0,1,33.815,2.6a28.3,28.3,0,0,0-6.532,9.506A11.743,11.743,0,0,0,14.756,31.362a11.707,11.707,0,0,0,12.506,2.654,28.3,28.3,0,0,0,6.554,9.556A23.042,23.042,0,0,1,28.723,45.5,23.283,23.283,0,0,1,23.136,46.173Z" transform="translate(0 20.27)" fill="#6ad0b0"/>
  </g>
</svg>
